<svg xmlns="http://www.w3.org/2000/svg" width="471.999" height="407.08" viewBox="0 0 471.999 407.08">
  <defs>
    <style>
      .cls-1 {
        fill: #48446d;
      }

      .cls-2 {
        fill: #f57070;
      }
    </style>
  </defs>
  <g id="Layer_2" transform="translate(3.499 -52.46)">
    <g id="Group_1" data-name="Group 1">
      <path id="Path_6" data-name="Path 6" class="cls-1" d="M382.079,59.46a3.614,3.614,0,0,1-.035.5c-.29,3.63-3.8,6.5-8.093,6.5H86.522c-14.759,0-26.765,10.34-26.765,23.05V322.73c0,12.71,12.007,23.05,26.765,23.05h62.089c4.053,0,7.4,2.54,8.012,5.87a3.741,3.741,0,0,1,.081.5,3.6,3.6,0,0,1,.023.5c0,.04.012.09.012.13,0,3.86-3.635,7-8.128,7H86.522C62.8,359.78,43.5,343.16,43.5,322.73V89.51c0-20.43,19.3-37.05,43.022-37.05H373.951c4.3,0,7.8,2.87,8.093,6.5A3.619,3.619,0,0,1,382.079,59.46Z" transform="translate(-46.999)"/>
      <path id="Path_7" data-name="Path 7" class="cls-1" d="M362.47,59.46a4.2,4.2,0,0,1-.03.5,6.987,6.987,0,0,1-13.94,0,4.2,4.2,0,0,1-.03-.5c0-.17.01-.33.02-.5a6.137,6.137,0,0,1,.12-.86,6.742,6.742,0,0,1,1.04-2.52,6.9,6.9,0,0,1,.87-1.07,6.987,6.987,0,0,1,11.92,4.45A4.2,4.2,0,0,1,362.47,59.46Z"/>
      <path id="Path_8" data-name="Path 8" class="cls-1" d="M540.066,89.51V322.73c0,20.43-20.509,37.05-45.72,37.05H384.372c-7.564,0-14.759,2.95-19.226,7.9l-80.334,88.99a9.9,9.9,0,0,1-13.944,0l-80.334-88.99c-4.467-4.95-11.661-7.9-19.226-7.9-4.776,0-8.638-3.14-8.638-7,0-.04.012-.09.012-.13a3.408,3.408,0,0,1,.037-.5,3.528,3.528,0,0,1,.086-.5c.642-3.33,4.2-5.87,8.5-5.87,13.056,0,25.458,5.1,33.17,13.64l73.362,81.26L351.2,359.42c7.713-8.54,20.114-13.64,33.17-13.64H494.346c15.684,0,28.444-10.34,28.444-23.05V89.51c0-12.71-12.76-23.05-28.444-23.05H432.461c-4.566,0-8.293-2.87-8.6-6.5a3.4,3.4,0,0,1,0-1c.309-3.63,4.035-6.5,8.6-6.5h61.885C519.557,52.46,540.066,69.08,540.066,89.51Z" transform="translate(-71.566)"/>
      <path id="Path_5" data-name="Path 5" class="cls-1" d="M338.32,253.21a7,7,0,0,1-.14,1.37,6.612,6.612,0,0,1-.4,1.31,7.766,7.766,0,0,1-.64,1.21,7.439,7.439,0,0,1-.87,1.06,6.362,6.362,0,0,1-1.07.87,6.7,6.7,0,0,1-1.21.65,7.348,7.348,0,0,1-1.31.4,7.231,7.231,0,0,1-2.73,0,7.35,7.35,0,0,1-1.31-.4,7.792,7.792,0,0,1-.99-.52,2.527,2.527,0,0,1-.22-.13c-.21-.14-.4-.29-.59-.44-.17-.14-.32-.28-.47-.43a6.294,6.294,0,0,1-.87-1.06,7.05,7.05,0,0,1-.65-1.21,7.348,7.348,0,0,1-.4-1.31,7.231,7.231,0,0,1,0-2.73,7.351,7.351,0,0,1,.4-1.31,6.7,6.7,0,0,1,.65-1.21,6.364,6.364,0,0,1,.87-1.07,7.438,7.438,0,0,1,1.06-.87,7.766,7.766,0,0,1,1.21-.64,7.349,7.349,0,0,1,1.31-.4,6.969,6.969,0,0,1,2.73,0,7.211,7.211,0,0,1,2.52,1.04c.17.11.33.24.49.36.2.16.39.33.58.51.05.06.1.12.15.17a7.886,7.886,0,0,1,.72.9,7.343,7.343,0,0,1,.64,1.21,6.612,6.612,0,0,1,.4,1.31A6.977,6.977,0,0,1,338.32,253.21Z" transform="translate(-89)"/>
      <path id="Path_3" data-name="Path 3" class="cls-1" d="M242.14,173.39a7,7,0,0,1-7,7,7.136,7.136,0,0,1-1.37-.13,7.887,7.887,0,0,1-1.31-.4,7.717,7.717,0,0,1-1.2-.65,5.988,5.988,0,0,1-1.07-.87,7.043,7.043,0,0,1-2.05-4.95,7.158,7.158,0,0,1,.14-1.37,6.727,6.727,0,0,1,.4-1.3,6.656,6.656,0,0,1,.64-1.21,7.527,7.527,0,0,1,.87-1.07,7,7,0,0,1,1.07-.87,6.912,6.912,0,0,1,1.2-.64,6.968,6.968,0,0,1,4.05-.4,6.612,6.612,0,0,1,1.31.4,7,7,0,0,1,1.21.64,7.438,7.438,0,0,1,1.06.87,6.362,6.362,0,0,1,.87,1.07,7.385,7.385,0,0,1,.65,1.21,7.5,7.5,0,0,1,.4,1.3A7.134,7.134,0,0,1,242.14,173.39Z" transform="translate(-89)"/>
      <path id="Path_2" data-name="Path 2" class="cls-1" d="M225.58,159.79a6.988,6.988,0,0,1-9.82,1.19,18.658,18.658,0,0,0-11.59-3.99,19.009,19.009,0,0,0-18.98,18.98,7,7,0,0,1-14,0,33.024,33.024,0,0,1,32.98-32.98,32.472,32.472,0,0,1,20.21,6.97A6.992,6.992,0,0,1,225.58,159.79Z" transform="translate(-89)"/>
      <path id="stroke" class="cls-1" d="M371.41,178.9c0,18.91-6.65,39.1-19.77,60.01a7,7,0,0,1-9.37,2.37,2.543,2.543,0,0,1-.28-.16,4.628,4.628,0,0,1-.56-.39,7,7,0,0,1-1.65-9.26c11.7-18.65,17.63-36.34,17.63-52.57a53.681,53.681,0,0,0-95.91-33.17,7,7,0,0,1-11,0,53.681,53.681,0,0,0-95.91,33.17c0,31.52,21.88,67.54,65.04,107.09.19.15.35.29.51.43.42.37.84.72,1.27,1.06l.6.49c.87.71,1.63,1.33,2.36,1.87.59.44,1.21.84,1.83,1.25l.21.14c.74.49,1.61,1.06,2.47,1.56q1.02.6,2.07,1.14c.92.49,1.83.94,2.72,1.34.66.31,1.33.6,2.01.88.88.36,1.85.72,2.98,1.11l.32.1c.54.19,1.07.37,1.61.53,1.13.34,2.29.62,3.27.85l.71.17c.36.08.72.17,1.08.24,1.27.25,2.58.42,3.7.56l.85.12c.2.03.4.07.6.09,1.82.17,3.5.26,5.12.26h.16c1.62,0,3.3-.09,5.12-.27.2-.01.39-.05.59-.08l.85-.12c1.11-.13,2.43-.31,3.71-.56.36-.07.71-.16,1.06-.24l.71-.17c.93-.21,2.13-.5,3.29-.85.54-.16,1.07-.34,1.6-.52l.31-.11c1.13-.38,2.11-.74,3.01-1.11.67-.28,1.33-.57,1.99-.87.89-.41,1.81-.86,2.74-1.35.69-.37,1.38-.74,2.05-1.13.87-.52,1.75-1.09,2.49-1.58l.23-.15c.6-.4,1.21-.8,1.8-1.23.74-.54,1.51-1.18,2.33-1.85l.65-.52c.42-.34.84-.68,1.24-1.05.18-.15.35-.29.52-.43,6.19-5.67,12.03-11.36,17.36-16.91a6.99,6.99,0,0,1,9.18-.79,5.7,5.7,0,0,1,.71.59.121.121,0,0,1,.05.05,7,7,0,0,1,.16,9.85c-5.57,5.79-11.65,11.72-18.1,17.62q-.3.27-.6.51c-.56.5-1.13.97-1.71,1.44l-.53.43c-.97.8-1.94,1.59-3,2.36-.81.59-1.58,1.11-2.34,1.61l-.21.14c-.9.59-1.98,1.3-3.15,1.99-.86.5-1.72.97-2.59,1.42-1.16.62-2.32,1.19-3.46,1.71-.84.38-1.67.75-2.52,1.1-1.16.47-2.4.93-3.79,1.41l-.29.1c-.71.24-1.41.47-2.13.69-1.53.46-3.01.81-4.14,1.07l-.57.14c-.55.13-1.11.26-1.66.37-1.72.34-3.41.56-4.68.72-.16.02-.33.04-.49.07-.44.06-.88.13-1.32.17-2.3.22-4.44.33-6.53.33h-.04c-2.09,0-4.23-.11-6.52-.33-.45-.04-.9-.11-1.34-.17-.17-.03-.33-.05-.5-.08-1.35-.16-2.97-.38-4.65-.71-.57-.11-1.13-.24-1.69-.38l-.57-.13c-1.2-.28-2.62-.62-4.12-1.07-.71-.21-1.43-.45-2.14-.7l-.3-.1c-1.4-.48-2.63-.93-3.76-1.4-.85-.34-1.7-.72-2.55-1.1-1.13-.52-2.28-1.09-3.43-1.7-1.04-.55-1.85-.99-2.61-1.44-1.16-.68-2.23-1.38-3.12-1.97l-.2-.13c-.76-.51-1.55-1.03-2.38-1.63-1.04-.77-1.99-1.54-2.91-2.29l-.59-.49c-.58-.47-1.17-.94-1.73-1.45-.23-.18-.42-.34-.6-.51-46.24-42.34-69.68-81.87-69.68-117.5A67.685,67.685,0,0,1,256,130.88,67.685,67.685,0,0,1,371.41,178.9Z" transform="translate(-89)"/>
      <path id="backgorund" class="cls-2" d="M341.43,240.73a7,7,0,0,1-1.65-9.26c11.7-18.65,17.63-36.34,17.63-52.57a53.681,53.681,0,0,0-95.91-33.17,7,7,0,0,1-11,0,53.681,53.681,0,0,0-95.91,33.17c0,31.52,21.88,67.54,65.04,107.09.19.15.35.29.51.43.42.37.84.72,1.27,1.06l.6.49c.87.71,1.63,1.33,2.36,1.87.59.44,1.21.84,1.83,1.25l.21.14c.74.49,1.61,1.06,2.47,1.56q1.02.6,2.07,1.14c.92.49,1.83.94,2.72,1.34.66.31,1.33.6,2.01.88.88.36,1.85.72,2.98,1.11l.32.1c.54.19,1.07.37,1.61.53,1.13.34,2.29.62,3.27.85l.71.17c.36.08.72.17,1.08.24,1.27.25,2.58.42,3.7.56l.85.12c.2.03.4.07.6.09,1.82.17,3.5.26,5.12.26h.16c1.62,0,3.3-.09,5.12-.27.2-.01.39-.05.59-.08l.85-.12c1.11-.13,2.43-.31,3.71-.56.36-.07.71-.16,1.06-.24l.71-.17c.93-.21,2.13-.5,3.29-.85.54-.16,1.07-.34,1.6-.52l.31-.11c1.13-.38,2.11-.74,3.01-1.11.67-.28,1.33-.57,1.99-.87.89-.41,1.81-.86,2.74-1.35.69-.37,1.38-.74,2.05-1.13.87-.52,1.75-1.09,2.49-1.58l.23-.15c.6-.4,1.21-.8,1.8-1.23.74-.54,1.51-1.18,2.33-1.85l.65-.52c.42-.34.84-.68,1.24-1.05.18-.15.35-.29.52-.43,6.19-5.67,12.03-11.36,17.36-16.91a6.99,6.99,0,0,1,9.18-.79,5.7,5.7,0,0,1,.71.59.121.121,0,0,1,.05.05l7.98-9.77a2.527,2.527,0,0,1-.22-.13c-.21-.14-.4-.29-.59-.44-.17-.14-.32-.28-.47-.43a6.294,6.294,0,0,1-.87-1.06,7.05,7.05,0,0,1-.65-1.21,7.348,7.348,0,0,1-.4-1.31,7.231,7.231,0,0,1,0-2.73,7.351,7.351,0,0,1,.4-1.31,6.7,6.7,0,0,1,.65-1.21,6.364,6.364,0,0,1,.87-1.07,7.438,7.438,0,0,1,1.06-.87,7.766,7.766,0,0,1,1.21-.64,7.349,7.349,0,0,1,1.31-.4,6.969,6.969,0,0,1,2.73,0,7.211,7.211,0,0,1,2.52,1.04c.17.11.33.24.49.36.2.16.39.33.58.51.05.06.1.12.15.17l5.85-7.15a2.543,2.543,0,0,1-.28-.16A4.645,4.645,0,0,1,341.43,240.73ZM225.58,159.79a6.988,6.988,0,0,1-9.82,1.19,18.658,18.658,0,0,0-11.59-3.99,19.009,19.009,0,0,0-18.98,18.98,7,7,0,0,1-14,0,33.024,33.024,0,0,1,32.98-32.98,32.472,32.472,0,0,1,20.21,6.97A6.992,6.992,0,0,1,225.58,159.79Zm14.51,18.55a7.019,7.019,0,0,1-4.95,2.05,7.136,7.136,0,0,1-1.37-.13,7.887,7.887,0,0,1-1.31-.4,7.717,7.717,0,0,1-1.2-.65,5.988,5.988,0,0,1-1.07-.87,7.043,7.043,0,0,1-2.05-4.95,7.158,7.158,0,0,1,.14-1.37,6.727,6.727,0,0,1,.4-1.3,6.656,6.656,0,0,1,.64-1.21,7.527,7.527,0,0,1,.87-1.07,7,7,0,0,1,1.07-.87,6.912,6.912,0,0,1,1.2-.64,6.968,6.968,0,0,1,4.05-.4,6.612,6.612,0,0,1,1.31.4,7,7,0,0,1,1.21.64,7.438,7.438,0,0,1,1.06.87,6.362,6.362,0,0,1,.87,1.07,7.385,7.385,0,0,1,.65,1.21,7.5,7.5,0,0,1,.4,1.3,7.137,7.137,0,0,1,.13,1.37A7.018,7.018,0,0,1,240.09,178.34Z" transform="translate(-89)"/>
    </g>
  </g>
</svg>
